<?xml version="1.0" encoding="utf-8"?><svg xmlns="http://www.w3.org/2000/svg" xmlns:xlink="http://www.w3.org/1999/xlink"><symbol fill="none" viewBox="0 0 22 11" id="Vector" xmlns="http://www.w3.org/2000/svg"><path d="M.5 5.5h20m0 0l-4-4m4 4l-4 4" stroke="#FEE040" stroke-width="2"/></symbol><symbol id="arrow" viewBox="0 0 10 6" xml:space="preserve" xmlns="http://www.w3.org/2000/svg"><style>.bst1{fill:none;stroke:#a9abbe;stroke-width:1.5;stroke-miterlimit:10}</style><path d="M.5.2l4.6 5.6L9.8.2" fill="#fff"/><path class="bst1" d="M.5.2l4.6 5.6L9.8.2"/><path class="bst1" d="M.5.2l4.6 5.6L9.8.2"/></symbol><symbol viewBox="0 0 64 114" id="bottle-A" xmlns="http://www.w3.org/2000/svg"><path d="M46 23H18V3h28v20zm-26-2h24V5H20v16zm32 6.5c0 2.7-1.8 5.5-4.1 5.5H16.1c-2.3 0-4.1-2.8-4.1-5.5v-2.1c0-2.7 1.8-4.4 4.1-4.4h31.8c2.3 0 4.1 1.7 4.1 4.4v2.1zm-2-2.1c0-1.4-1-2.4-2.1-2.4H16.1C15 23 14 24 14 25.4v2.1c0 1.4 1 3.5 2.1 3.5h31.8c1.2 0 2.1-2.1 2.1-3.5v-2.1zm0 85.6H13.2C6.8 111 2 105.9 2 99.4V53.7C2 47.3 12.4 31 19.2 31h24.9C50.8 31 62 47.4 62 53.7v45.7c0 6.5-5.5 11.6-12 11.6zM19.2 33C14.1 33 4 47.9 4 53.7v45.7c0 5.4 3.9 9.6 9.2 9.6H50c5.4 0 10-4.2 10-9.6V53.7C60 47.8 49.2 33 44.1 33H19.2z" fill="#12a9eb"/></symbol><symbol viewBox="0 0 64 114" id="bottle-B" xmlns="http://www.w3.org/2000/svg"><style/><path id="dbottle" d="M46 23H18V3h28v20zm-26-2h24V5H20v16zm32 6.5c0 2.7-1.8 5.5-4.1 5.5H16.1c-2.3 0-4.1-2.8-4.1-5.5v-2.1c0-2.7 1.8-4.4 4.1-4.4h31.8c2.3 0 4.1 1.7 4.1 4.4v2.1zm-2-2.1c0-1.4-1-2.4-2.1-2.4H16.1C15 23 14 24 14 25.4v2.1c0 1.4 1 3.5 2.1 3.5h31.8c1.2 0 2.1-2.1 2.1-3.5v-2.1zm0 85.6H13.2C6.8 111 2 105.9 2 99.4V53.7C2 47.3 12.4 31 19.2 31h24.9C50.8 31 62 47.4 62 53.7v45.7c0 6.5-5.5 11.6-12 11.6zM19.2 33C14.1 33 4 47.9 4 53.7v45.7c0 5.4 3.9 9.6 9.2 9.6H50c5.4 0 10-4.2 10-9.6V53.7C60 47.8 49.2 33 44.1 33H19.2z" fill="#12a9eb"/><path id="dfull" d="M20.8 35H43c5.2 0 15 15.6 15 20.9v41.5c0 5.4-4.4 9.6-9.8 9.6H15.4c-5.2 0-9.4-4.3-9.4-9.6V55.9C6 50.6 15.4 35 20.8 35z" fill="#c0c0ce"/><path id="d90_per" d="M53.5 45.1C56.1 49.2 58 53.7 58 56v41.5c0 5.4-4.4 9.5-9.8 9.5H15.4c-5.2 0-9.4-4.2-9.4-9.5V55.9c0-2.3 1.9-6.8 4.4-10.9l43.1.1z" fill="#c0c0ce"/><path id="d80_per" d="M57.5 53.1c.4 1.1.5 2.1.5 2.8v41.5c0 5.4-4.4 9.6-9.8 9.6H15.4c-5.2 0-9.4-4.3-9.4-9.6V55.9c0-.7.2-1.7.5-2.7l51-.1z" fill="#c0c0ce"/><path id="d70_per" d="M58 58v39.4c0 5.4-4.4 9.6-9.8 9.6H15.4c-5.2 0-9.4-4.3-9.4-9.6V58h52z" fill="#c0c0ce"/><path id="d60_per" d="M58 66v31.4c0 5.4-4.4 9.6-9.8 9.6H15.4c-5.2 0-9.4-4.3-9.4-9.6V66h52z" fill="#c0c0ce"/><path id="d50_per" d="M58 71v26.4c0 5.4-4.4 9.6-9.8 9.6H15.4c-5.2 0-9.4-4.3-9.4-9.6V71h52z" fill="#c0c0ce"/><path id="d40_per" d="M58 77v20.4c0 5.4-4.4 9.6-9.8 9.6H15.4c-5.2 0-9.4-4.3-9.4-9.6V77h52z" fill="#c0c0ce"/><path id="d30_per" d="M58 83v14.4c0 5.4-4.4 9.6-9.8 9.6H15.4c-5.2 0-9.4-4.3-9.4-9.6V83h52z" fill="#c0c0ce"/><path id="d20_per" d="M58 90v7.4c0 5.4-4.4 9.6-9.8 9.6H15.4c-5.2 0-9.4-4.3-9.4-9.6V90h52z" fill="#c0c0ce"/><path id="d10_per" d="M58 97v.4c0 5.4-4.4 9.6-9.8 9.6H15.4c-5.2 0-9.4-4.3-9.4-9.6V97h52z" fill="#c0c0ce"/></symbol><symbol fill="none" viewBox="0 0 20 14" id="burger" xmlns="http://www.w3.org/2000/svg"><path d="M1 7h18M1 1h18M1 13h18" stroke="#FCFCFD" stroke-width="2" stroke-linecap="round" stroke-linejoin="round"/></symbol><symbol fill="none" viewBox="0 0 12 9" id="check-mark" xmlns="http://www.w3.org/2000/svg"><path d="M4.078 8.79L.164 4.897A.571.571 0 010 4.477c0-.172.055-.313.164-.422l.867-.844a.51.51 0 01.399-.188c.172 0 .32.063.445.188L4.5 5.836 10.125.21a.583.583 0 01.422-.188c.172 0 .312.063.422.188l.867.844c.11.11.164.25.164.422a.571.571 0 01-.164.421L4.922 8.79a.535.535 0 01-.422.188.535.535 0 01-.422-.188z" fill="#000"/></symbol><symbol viewBox="0 0 14 14" id="close" xmlns="http://www.w3.org/2000/svg"><g fill="#d7b36d" fill-rule="evenodd"><path d="M13.295 14a.548.548 0 01-.39-.164L.313 1.108a.563.563 0 010-.79.548.548 0 01.782 0l12.59 12.728a.563.563 0 010 .79.548.548 0 01-.39.164z"/><path d="M.705 14a.548.548 0 01-.39-.164.563.563 0 010-.79L12.904.317a.548.548 0 01.781 0 .563.563 0 010 .79l-12.59 12.73a.547.547 0 01-.39.163z"/></g></symbol><symbol fill="none" viewBox="0 0 14 14" id="icon-close" xmlns="http://www.w3.org/2000/svg"><path d="M13 1L1 13M1 1l12 12" stroke="#FCFCFD" stroke-width="2" stroke-linecap="round" stroke-linejoin="round"/></symbol><symbol viewBox="0 0 73 95" id="sampler-icon" xmlns="http://www.w3.org/2000/svg"><g fill="none"><path stroke="#00ABEE" d="M29 4.5h41m-41 84h41M70.5 4v85m-41-88v4m0 83v4"/><path clip-rule="evenodd" d="M42 9.5H18a3.5 3.5 0 00-3.5 3.5v2a3.5 3.5 0 003.5 3.5h2a1.5 1.5 0 011.5 1.5v5a1.5 1.5 0 01-1.5 1.5h-3a3.5 3.5 0 00-3.5 3.5v51a3.5 3.5 0 003.5 3.5h26a3.5 3.5 0 003.5-3.5V30a3.5 3.5 0 00-3.5-3.5h-3a1.5 1.5 0 01-1.5-1.5v-5a1.5 1.5 0 011.5-1.5h2a3.5 3.5 0 003.5-3.5v-2A3.5 3.5 0 0042 9.5z" stroke-miterlimit="8" stroke="#00ABEE"/><path stroke="#24384B" d="M29.5 19v9"/><rect x=".5" y=".5" width="6" height="2" rx=".5" transform="translate(26 16)" stroke="#24384B"/><rect x=".5" y=".5" width="12" height="2" rx=".5" transform="translate(23 28)" stroke="#24384B"/><path clip-rule="evenodd" d="M33.5 30.5h-8v25a4 4 0 008 0v-25z" stroke-miterlimit="8" stroke="#24384B"/><path fill="#24384B" d="M28 59h3v3h-3z"/><path stroke="#24384B" d="M29.5 62v17m0-45v22M27 53.5h4m-4-6h4m-4-6h4m-4-6h4m-2 3h2m-2 6h2m-2 6h2"/></g><g fill="none"><path clip-rule="evenodd" d="M42 9.5H18a3.5 3.5 0 00-3.5 3.5v2a3.5 3.5 0 003.5 3.5h2a1.5 1.5 0 011.5 1.5v5a1.5 1.5 0 01-1.5 1.5h-3a3.5 3.5 0 00-3.5 3.5v51a3.5 3.5 0 003.5 3.5h26a3.5 3.5 0 003.5-3.5V30a3.5 3.5 0 00-3.5-3.5h-3a1.5 1.5 0 01-1.5-1.5v-5a1.5 1.5 0 011.5-1.5h2a3.5 3.5 0 003.5-3.5v-2A3.5 3.5 0 0042 9.5z" stroke-miterlimit="8" stroke="#00ABEE"/><path stroke="#24384B" d="M29.5 19v9"/><rect x=".5" y=".5" width="6" height="2" rx=".5" transform="translate(26 16)" stroke="#24384B"/><rect x=".5" y=".5" width="12" height="2" rx=".5" transform="translate(23 28)" stroke="#24384B"/><path clip-rule="evenodd" d="M33.5 30.5h-8v25a4 4 0 008 0v-25z" stroke-miterlimit="8" stroke="#24384B"/><path fill="#24384B" d="M28 59h3v3h-3z"/><path stroke="#24384B" d="M29.5 62v17m0-45v22M27 53.5h4m-4-6h4m-4-6h4m-4-6h4m-2 3h2m-2 6h2m-2 6h2"/><path stroke="#00ABEE" d="M29 4.5h41m-41 84h41M29.5 5v4m0 76v4"/></g><g fill="none"><path stroke="#00ABEE" d="M29 4.5h41m-41 84h41M70.5 4v85m-41-88v4m0 83v4"/><path clip-rule="evenodd" d="M34.15 56.5h-9.3a1.908 1.908 0 100 3.816h.062c.617 0 1.117.5 1.117 1.117v1.348c0 .666-.54 1.206-1.205 1.206A2.324 2.324 0 0022.5 66.31V81a3.5 3.5 0 003.5 3.5h7a3.5 3.5 0 003.5-3.5V66.31a2.324 2.324 0 00-2.323-2.323c-.666 0-1.206-.54-1.206-1.206v-1.348c0-.617.5-1.117 1.117-1.117h.063a1.908 1.908 0 100-3.816z" stroke-miterlimit="8" stroke="#B0B1C5"/><path stroke-linecap="round" stroke="#B0B1C5" d="M26 60.5h7"/><path d="M29.5 10v3.5" stroke="#24384B"/><rect x=".5" y=".5" width="6" height="2" rx=".5" transform="translate(26 7)" stroke="#24384B"/><rect x=".5" y=".5" width="12" height="2" rx=".5" transform="translate(23 13)" stroke="#24384B"/><path clip-rule="evenodd" d="M33.5 15.5h-8v25a4 4 0 008 0v-25z" stroke-miterlimit="8" stroke="#24384B"/><path fill="#24384B" d="M28 44h3v3h-3z"/><path d="M29.5 47v8m0-36v22M27 38.5h4m-4-6h4m-4-6h4m-4-6h4m-2 3h2m-2 6h2m-2 6h2" stroke="#24384B"/></g></symbol><symbol fill="none" viewBox="0 0 16 16" id="select-arrow" xmlns="http://www.w3.org/2000/svg"><path fill-rule="evenodd" clip-rule="evenodd" d="M7.293.293a1 1 0 011.414 0l7 7a1 1 0 010 1.414l-7 7a1 1 0 01-1.414-1.414L12.586 9H1a1 1 0 010-2h11.586L7.293 1.707a1 1 0 010-1.414z" fill="#868D43"/></symbol><symbol fill="none" viewBox="0 0 29 16" id="top" xmlns="http://www.w3.org/2000/svg"><rect x=".222" y="14.364" width="20" height="2" rx="1" transform="rotate(-45 .222 14.364)" fill="#000"/><rect x="14.375" y=".443" width="20" height="2" rx="1" transform="rotate(43.048 14.375 .443)" fill="#000"/></symbol><symbol viewBox="0 0 51 31" id="valve-icon" xmlns="http://www.w3.org/2000/svg"><g fill="none" stroke="#00ABEE"><path clip-rule="evenodd" d="M34.5 30.5v-25h-18v25h18zm-19-.14V5.368L.5.68v25.93l15 3.75zm20-24.992V30.36l15-3.75V.68l-15 4.688z" stroke-miterlimit="8"/><path d="M0 .5h51"/><circle cx="3.5" cy="3.5" r="3" transform="translate(5 7)"/><circle cx="3.5" cy="3.5" r="3" transform="translate(5 17)"/><circle cx="3.5" cy="3.5" r="3" transform="translate(39 7)"/><circle cx="3.5" cy="3.5" r="3" transform="translate(39 17)"/><circle cx="3.5" cy="3.5" r="3" transform="translate(22 9)"/><circle cx="3.5" cy="3.5" r="3" transform="translate(22 19)"/></g></symbol></svg>