<svg version="1.1" id="&#x421;&#x43B;&#x43E;&#x439;_1" xmlns="http://www.w3.org/2000/svg" x="0" y="0" viewBox="0 0 30 53" xml:space="preserve"><path id="bottle" d="M46 23H18V3h28v20zm-26-2h24V5H20v16zm32 6.5c0 2.7-1.8 5.5-4.1 5.5H16.1c-2.3 0-4.1-2.8-4.1-5.5v-2.1c0-2.7 1.8-4.4 4.1-4.4h31.8c2.3 0 4.1 1.7 4.1 4.4v2.1zm-2-2.1c0-1.4-1-2.4-2.1-2.4H16.1C15 23 14 24 14 25.4v2.1c0 1.4 1 3.5 2.1 3.5h31.8c1.2 0 2.1-2.1 2.1-3.5v-2.1zm0 85.6H13.2C6.8 111 2 105.9 2 99.4V53.7C2 47.3 12.4 31 19.2 31h24.9C50.8 31 62 47.4 62 53.7v45.7c0 6.5-5.5 11.6-12 11.6zM19.2 33C14.1 33 4 47.9 4 53.7v45.7c0 5.4 3.9 9.6 9.2 9.6H50c5.4 0 10-4.2 10-9.6V53.7C60 47.8 49.2 33 44.1 33H19.2z" fill="#12a9eb"/></svg>