<svg width="73" height="95" xmlns="http://www.w3.org/2000/svg"><g id="by_pass" fill="none"><path transform="translate(29 5)" stroke="#00ABEE" d="M0-.5h41"/><path transform="translate(29 89)" stroke="#00ABEE" d="M0-.5h41"/><path transform="rotate(90 33 37)" stroke="#00ABEE" d="M0-.5h85"/><path transform="rotate(90 14 15)" stroke="#00ABEE" d="M0-.5h4"/><path transform="rotate(90 -29.5 58.5)" stroke="#00ABEE" d="M0-.5h4"/><path fill-rule="evenodd" clip-rule="evenodd" d="M29 .5H5A3.5 3.5 0 001.5 4v2A3.5 3.5 0 005 9.5h2A1.5 1.5 0 018.5 11v5A1.5 1.5 0 017 17.5H4A3.5 3.5 0 00.5 21v51A3.5 3.5 0 004 75.5h26a3.5 3.5 0 003.5-3.5V21a3.5 3.5 0 00-3.5-3.5h-3a1.5 1.5 0 01-1.5-1.5v-5A1.5 1.5 0 0127 9.5h2A3.5 3.5 0 0032.5 6V4A3.5 3.5 0 0029 .5z" stroke-miterlimit="8" transform="translate(13 9)" stroke="#00ABEE"/><path transform="rotate(90 5 24)" stroke="#24384B" d="M0-.5h9"/><rect x=".5" y=".5" width="6" height="2" rx=".5" transform="translate(26 16)" stroke="#24384B"/><rect x=".5" y=".5" width="12" height="2" rx=".5" transform="translate(23 28)" stroke="#24384B"/><path fill-rule="evenodd" clip-rule="evenodd" d="M8.5.5h-8v25a4 4 0 008 0V.5z" stroke-miterlimit="8" transform="translate(25 30)" stroke="#24384B"/><path transform="translate(28 59)" fill="#24384B" d="M0 0h3v3H0z"/><path transform="rotate(90 -16.5 45.5)" stroke="#24384B" d="M0-.5h17"/><path transform="rotate(90 -2.5 31.5)" stroke="#24384B" d="M0-.5h22"/><path transform="translate(27 54)" stroke="#24384B" d="M0-.5h4"/><path transform="translate(27 48)" stroke="#24384B" d="M0-.5h4"/><path transform="translate(27 42)" stroke="#24384B" d="M0-.5h4"/><path transform="translate(27 36)" stroke="#24384B" d="M0-.5h4"/><path transform="translate(29 39)" stroke="#24384B" d="M0-.5h2"/><path transform="translate(29 45)" stroke="#24384B" d="M0-.5h2"/><path transform="translate(29 51)" stroke="#24384B" d="M0-.5h2"/></g><g id="main_pass" fill="none"><path fill-rule="evenodd" clip-rule="evenodd" d="M29 .5H5A3.5 3.5 0 001.5 4v2A3.5 3.5 0 005 9.5h2A1.5 1.5 0 018.5 11v5A1.5 1.5 0 017 17.5H4A3.5 3.5 0 00.5 21v51A3.5 3.5 0 004 75.5h26a3.5 3.5 0 003.5-3.5V21a3.5 3.5 0 00-3.5-3.5h-3a1.5 1.5 0 01-1.5-1.5v-5A1.5 1.5 0 0127 9.5h2A3.5 3.5 0 0032.5 6V4A3.5 3.5 0 0029 .5z" stroke-miterlimit="8" transform="translate(13 9)" stroke="#00ABEE"/><path transform="rotate(90 5 24)" stroke="#24384B" d="M0-.5h9"/><rect x=".5" y=".5" width="6" height="2" rx=".5" transform="translate(26 16)" stroke="#24384B"/><rect x=".5" y=".5" width="12" height="2" rx=".5" transform="translate(23 28)" stroke="#24384B"/><path fill-rule="evenodd" clip-rule="evenodd" d="M8.5.5h-8v25a4 4 0 008 0V.5z" stroke-miterlimit="8" transform="translate(25 30)" stroke="#24384B"/><path transform="translate(28 59)" fill="#24384B" d="M0 0h3v3H0z"/><path transform="rotate(90 -16.5 45.5)" stroke="#24384B" d="M0-.5h17"/><path transform="rotate(90 -2.5 31.5)" stroke="#24384B" d="M0-.5h22"/><path transform="translate(27 54)" stroke="#24384B" d="M0-.5h4"/><path transform="translate(27 48)" stroke="#24384B" d="M0-.5h4"/><path transform="translate(27 42)" stroke="#24384B" d="M0-.5h4"/><path transform="translate(27 36)" stroke="#24384B" d="M0-.5h4"/><path transform="translate(29 39)" stroke="#24384B" d="M0-.5h2"/><path transform="translate(29 45)" stroke="#24384B" d="M0-.5h2"/><path transform="translate(29 51)" stroke="#24384B" d="M0-.5h2"/><path transform="translate(29 5)" stroke="#00ABEE" d="M0-.5h41"/><path transform="translate(29 89)" stroke="#00ABEE" d="M0-.5h41"/><path transform="rotate(90 12 17)" stroke="#00ABEE" d="M0-.5h4"/><path transform="rotate(90 -28 57)" stroke="#00ABEE" d="M0-.5h4"/></g><g id="injection" fill="none"><path transform="translate(29 5)" stroke="#00ABEE" d="M0-.5h41"/><path transform="translate(29 89)" stroke="#00ABEE" d="M0-.5h41"/><path transform="rotate(90 33 37)" stroke="#00ABEE" d="M0-.5h85"/><path transform="rotate(90 14 15)" stroke="#00ABEE" d="M0-.5h4"/><path transform="rotate(90 -29.5 58.5)" stroke="#00ABEE" d="M0-.5h4"/><path fill-rule="evenodd" clip-rule="evenodd" d="M12.15.5h-9.3a1.908 1.908 0 100 3.816h.062c.617 0 1.117.5 1.117 1.117v1.348c0 .666-.54 1.206-1.205 1.206A2.324 2.324 0 00.5 10.31V25A3.5 3.5 0 004 28.5h7a3.5 3.5 0 003.5-3.5V10.31a2.324 2.324 0 00-2.323-2.323c-.666 0-1.206-.54-1.206-1.206V5.433c0-.617.5-1.117 1.117-1.117h.063a1.908 1.908 0 100-3.816z" stroke-miterlimit="8" transform="translate(22 56)" stroke="#B0B1C5"/><path stroke-linecap="round" transform="translate(25.5 61)" stroke="#B0B1C5" d="M.5-.5h7"/><path d="M0 0h3.5" transform="rotate(90 9.75 19.75)" stroke="#24384B"/><rect x=".5" y=".5" width="6" height="2" rx=".5" transform="translate(26 7)" stroke="#24384B"/><rect x=".5" y=".5" width="12" height="2" rx=".5" transform="translate(23 13)" stroke="#24384B"/><path fill-rule="evenodd" clip-rule="evenodd" d="M8.5.5h-8v25a4 4 0 008 0V.5z" stroke-miterlimit="8" transform="translate(25 15)" stroke="#24384B"/><path transform="translate(28 44)" fill="#24384B" d="M0 0h3v3H0z"/><path d="M0 0h8" transform="rotate(90 -8.75 38.25)" stroke="#24384B"/><path transform="rotate(90 5 24)" stroke="#24384B" d="M0-.5h22"/><path transform="translate(27 39)" stroke="#24384B" d="M0-.5h4"/><path transform="translate(27 33)" stroke="#24384B" d="M0-.5h4"/><path transform="translate(27 27)" stroke="#24384B" d="M0-.5h4"/><path transform="translate(27 21)" stroke="#24384B" d="M0-.5h4"/><path transform="translate(29 24)" stroke="#24384B" d="M0-.5h2"/><path transform="translate(29 30)" stroke="#24384B" d="M0-.5h2"/><path transform="translate(29 36)" stroke="#24384B" d="M0-.5h2"/></g></svg>