<?xml version="1.0" encoding="utf-8"?><svg xmlns="http://www.w3.org/2000/svg" xmlns:xlink="http://www.w3.org/1999/xlink"><symbol viewBox="0 0 22 11" id="Vector" xmlns="http://www.w3.org/2000/svg"><path d="M.5 5.5h20m0 0l-4-4m4 4l-4 4"/></symbol><symbol viewBox="0 0 22 11" id="arrow" xmlns="http://www.w3.org/2000/svg"><path fill-rule="evenodd" clip-rule="evenodd" d="M17.207.793L21.914 5.5l-4.707 4.707-1.414-1.414L18.086 6.5H.5v-2h17.586l-2.293-2.293L17.207.793z"/></symbol><symbol viewBox="0 0 40 22" id="burger" xmlns="http://www.w3.org/2000/svg"><g opacity=".8"><path d="M0 0h40v2H0zm0 20h40v2H0zM0 10h16v2H0zm24 0h16v2H24z"/></g></symbol><symbol viewBox="0 0 12 9" id="check-mark" xmlns="http://www.w3.org/2000/svg"><path d="M4.078 8.79L.164 4.897A.571.571 0 010 4.477c0-.172.055-.313.164-.422l.867-.844a.51.51 0 01.399-.188c.172 0 .32.063.445.188L4.5 5.836 10.125.21a.583.583 0 01.422-.188c.172 0 .312.063.422.188l.867.844c.11.11.164.25.164.422a.571.571 0 01-.164.421L4.922 8.79a.535.535 0 01-.422.188.535.535 0 01-.422-.188z"/></symbol><symbol viewBox="0 0 12 13" id="download" xmlns="http://www.w3.org/2000/svg"><path d="M5.063.5h1.875c.156 0 .289.055.398.164a.54.54 0 01.164.398V5h2.063c.203 0 .343.102.421.305a.416.416 0 01-.093.492L6.328 9.359a.45.45 0 01-.656 0L2.109 5.797a.416.416 0 01-.093-.492c.078-.203.218-.305.421-.305H4.5V1.062c0-.156.055-.289.164-.398A.542.542 0 015.063.5zM12 9.313v2.624c0 .157-.055.29-.164.399a.542.542 0 01-.399.164H.563a.542.542 0 01-.399-.164.542.542 0 01-.164-.399V9.313c0-.157.055-.29.164-.399a.542.542 0 01.398-.164h3.446l1.148 1.148c.235.235.516.352.844.352.328 0 .61-.117.844-.352L7.992 8.75h3.446c.156 0 .289.055.398.164.11.11.164.242.164.399zm-3.047 2.39a.45.45 0 000-.656.45.45 0 00-.656 0 .45.45 0 000 .656.45.45 0 00.656 0zm1.5 0a.45.45 0 000-.656.45.45 0 00-.656 0 .45.45 0 000 .656.45.45 0 00.656 0z"/></symbol><symbol viewBox="0 0 13 11" id="home" xmlns="http://www.w3.org/2000/svg"><path d="M10.998 6.75v3.75a.48.48 0 01-.148.352.48.48 0 01-.352.148h-3V8h-2v3h-3a.48.48 0 01-.352-.148.48.48 0 01-.148-.352V6.727a.06.06 0 00.008-.024L6.498 3l4.492 3.703a.11.11 0 01.008.047zm1.742-.54l-.484.58a.266.266 0 01-.164.085h-.024a.24.24 0 01-.164-.055L6.498 2.312 1.092 6.82a.29.29 0 01-.188.055.266.266 0 01-.164-.086l-.484-.578A.247.247 0 01.2 6.03a.23.23 0 01.086-.172l5.617-4.68a.912.912 0 01.594-.202c.23 0 .427.067.594.203l1.906 1.593V1.25c0-.073.024-.133.07-.18a.243.243 0 01.18-.07h1.5c.073 0 .133.023.18.07.047.047.07.107.07.18v3.188l1.711 1.421a.23.23 0 01.086.172.247.247 0 01-.055.18z"/></symbol><symbol viewBox="0 0 11 8" id="mail" xmlns="http://www.w3.org/2000/svg"><path d="M10.305 2.98c.039-.039.078-.045.117-.02.052.027.078.066.078.118v3.985c0 .26-.091.481-.273.664A.904.904 0 019.562 8H1.438a.904.904 0 01-.665-.273.904.904 0 01-.273-.665V3.079c0-.052.02-.085.059-.098.052-.026.097-.026.136 0 .43.326 1.433 1.062 3.008 2.208.026.026.11.097.254.214.156.118.28.209.371.274.091.052.208.123.352.215.143.078.28.136.41.175a1.559 1.559 0 00.762.02c.117-.04.227-.078.332-.117.104-.052.214-.117.332-.196l.293-.195c.078-.065.169-.137.273-.215a2.1 2.1 0 00.215-.176c1.536-1.106 2.539-1.842 3.008-2.207zM5.5 5.5c-.104 0-.234-.033-.39-.098a18.14 18.14 0 01-.352-.195l-.41-.293c-.17-.143-.26-.215-.274-.215A189.3 189.3 0 01.676 2.18.445.445 0 01.5 1.81v-.371c0-.26.091-.482.273-.665A.904.904 0 011.437.5h8.126c.26 0 .481.091.664.273a.904.904 0 01.273.664v.372c0 .156-.059.28-.176.37a160.37 160.37 0 01-3.398 2.52c-.013 0-.11.072-.293.215-.17.13-.3.228-.39.293a7.933 7.933 0 01-.372.195.925.925 0 01-.371.098z"/></symbol><symbol viewBox="0 0 12 11" id="phone" xmlns="http://www.w3.org/2000/svg"><path d="M11.994 8.688c0-.055 0-.11-.023-.165-.055-.164-.438-.335-.594-.414-.445-.25-.899-.492-1.336-.75C9.838 7.234 9.588 7 9.346 7c-.477 0-1.172 1.414-1.594 1.414-.211 0-.484-.195-.672-.305-1.422-.789-2.406-1.773-3.195-3.195-.11-.187-.305-.46-.305-.672 0-.422 1.414-1.117 1.414-1.594 0-.242-.234-.492-.36-.695-.257-.437-.5-.89-.75-1.336-.077-.156-.25-.539-.413-.594C3.416 0 3.36 0 3.307 0c-.282 0-.828.125-1.086.242-.383.164-.633.602-.828.953-.25.461-.399.93-.399 1.453 0 .727.297 1.383.54 2.047.171.477.382.938.648 1.367.82 1.329 2.422 2.93 3.75 3.75a7.3 7.3 0 001.367.649c.664.242 1.32.539 2.047.539.523 0 .992-.148 1.453-.398.351-.196.789-.446.953-.829.117-.257.242-.804.242-1.085z"/></symbol><symbol viewBox="0 0 12 14" id="play" xmlns="http://www.w3.org/2000/svg"><path d="M0 0l12 6.75L0 13.5V0z"/></symbol><symbol viewBox="0 0 29 16" id="top" xmlns="http://www.w3.org/2000/svg"><rect x=".222" y="14.364" width="20" height="2" rx="1" transform="rotate(-45 .222 14.364)"/><rect x="14.375" y=".443" width="20" height="2" rx="1" transform="rotate(43.048 14.375 .443)"/></symbol><symbol viewBox="0 0 14 9" id="view" xmlns="http://www.w3.org/2000/svg"><path d="M13.336 3.938a7.501 7.501 0 00-2.742-2.72A7.46 7.46 0 006.75.189a7.46 7.46 0 00-3.844 1.03 7.502 7.502 0 00-2.742 2.72A1.01 1.01 0 000 4.5c0 .203.055.39.164.563A7.502 7.502 0 002.906 7.78 7.46 7.46 0 006.75 8.813a7.46 7.46 0 003.844-1.032 7.501 7.501 0 002.742-2.718c.11-.172.164-.36.164-.563 0-.203-.055-.39-.164-.563zM6.75 7.688a3.12 3.12 0 01-1.594-.422 3.502 3.502 0 01-1.172-1.172A3.117 3.117 0 013.563 4.5c0-.578.14-1.11.421-1.594a3.3 3.3 0 011.172-1.148 2.992 2.992 0 011.594-.446c.578 0 1.11.149 1.594.446.484.281.867.664 1.148 1.148.297.485.445 1.016.445 1.594a2.99 2.99 0 01-.445 1.594 3.3 3.3 0 01-1.148 1.172 3.117 3.117 0 01-1.594.421zM9.188 4.5c0 .672-.243 1.25-.727 1.734a2.329 2.329 0 01-1.711.704c-.672 0-1.25-.235-1.734-.704A2.407 2.407 0 014.312 4.5c0-.406.094-.79.282-1.148 0 .28.093.523.281.726.203.188.445.281.727.281a.954.954 0 00.703-.28.992.992 0 00.304-.727.917.917 0 00-.304-.704.917.917 0 00-.703-.304 2.44 2.44 0 011.148-.281c.672 0 1.242.242 1.71.726.485.469.727 1.04.727 1.711z"/></symbol></svg>