<?xml version="1.0" encoding="utf-8"?><svg xmlns="http://www.w3.org/2000/svg" xmlns:xlink="http://www.w3.org/1999/xlink"><symbol viewBox="0 0 32 32" id="Internet" xmlns="http://www.w3.org/2000/svg"><path d="M27.314 4.686c-6.249-6.248-16.38-6.248-22.628 0-6.248 6.249-6.248 16.38 0 22.628a1.455 1.455 0 002.057-2.057c-5.112-5.113-5.112-13.401 0-18.514 5.113-5.112 13.401-5.112 18.514 0 5.112 5.113 5.112 13.401 0 18.514a1.455 1.455 0 102.057 2.057c6.248-6.249 6.248-16.38 0-22.628z"/><path d="M23.2 8.8c-3.977-3.976-10.423-3.976-14.4 0-3.976 3.977-3.976 10.423 0 14.4a1.454 1.454 0 102.057-2.057 7.273 7.273 0 1110.286 0A1.455 1.455 0 0023.2 23.2c3.976-3.977 3.976-10.423 0-14.4z"/><path d="M11.636 16a4.364 4.364 0 115.819 4.115v8.976h1.454a1.455 1.455 0 010 2.909h-5.818a1.454 1.454 0 110-2.91h1.455v-8.975A4.365 4.365 0 0111.636 16z"/></symbol><symbol viewBox="0 0 22 11" id="Vector" xmlns="http://www.w3.org/2000/svg"><path d="M.5 5.5h20m0 0l-4-4m4 4l-4 4"/></symbol><symbol viewBox="0 0 32 32" id="access" xmlns="http://www.w3.org/2000/svg"><path d="M7.73.605c.466.648.315 1.55-.34 2.013L2.3 6.228a1.462 1.462 0 01-2.029-.336 1.437 1.437 0 01.338-2.014L5.7.27a1.462 1.462 0 012.03.336z"/><path fill-rule="evenodd" clip-rule="evenodd" d="M1.212 17.323C1.212 9.217 7.833 2.646 16 2.646s14.788 6.571 14.788 14.677S24.168 32 16 32C7.833 32 1.212 25.429 1.212 17.323zM17.28 9.64a1.45 1.45 0 00-1.455-1.444 1.45 1.45 0 00-1.454 1.444l-.001 7.946c0 .383.153.75.426 1.02l5.652 5.611a1.462 1.462 0 002.057 0 1.436 1.436 0 000-2.042l-5.226-5.187V9.64z"/><path d="M26.3.269a1.462 1.462 0 00-2.03.336 1.437 1.437 0 00.339 2.013l5.09 3.61a1.462 1.462 0 002.03-.336 1.437 1.437 0 00-.338-2.014L26.3.27z"/></symbol><symbol viewBox="0 0 20 12" id="arrow" xmlns="http://www.w3.org/2000/svg"><path d="M12.744 1.59A.833.833 0 1113.922.41l5 5a.833.833 0 010 1.18l-5 5a.833.833 0 11-1.178-1.18l3.577-3.577H1.676A.838.838 0 01.833 6c0-.46.377-.833.843-.833H16.32l-3.577-3.578z"/></symbol><symbol viewBox="0 0 20 14" id="burger" xmlns="http://www.w3.org/2000/svg"><path d="M1 7h18M1 1h18M1 13h18"/></symbol><symbol viewBox="0 0 12 9" id="check-mark" xmlns="http://www.w3.org/2000/svg"><path d="M4.078 8.79L.164 4.897A.571.571 0 010 4.477c0-.172.055-.313.164-.422l.867-.844a.51.51 0 01.399-.188c.172 0 .32.063.445.188L4.5 5.836 10.125.21a.583.583 0 01.422-.188c.172 0 .312.063.422.188l.867.844c.11.11.164.25.164.422a.571.571 0 01-.164.421L4.922 8.79a.535.535 0 01-.422.188.535.535 0 01-.422-.188z"/></symbol><symbol viewBox="0 0 32 29" id="clean" xmlns="http://www.w3.org/2000/svg"><path fill-rule="evenodd" clip-rule="evenodd" d="M11.429 1.523C11.429.682 12.11 0 12.952 0h6.096c.841 0 1.523.682 1.523 1.523v4.569h9.905c.842 0 1.524.681 1.524 1.522v6.092c0 .84-.682 1.523-1.524 1.523h-.762v12.248c0 .841-.682 1.523-1.523 1.523H3.81a1.523 1.523 0 01-1.524-1.523V15.23h-.762A1.523 1.523 0 010 13.706V7.614c0-.84.682-1.522 1.524-1.522h9.905v-4.57zm3.047 1.523v4.568c0 .841-.682 1.523-1.524 1.523H3.048v3.046h25.904V9.137h-9.904a1.523 1.523 0 01-1.524-1.523V3.046h-3.048zM16 21.308c.842 0 1.524.682 1.524 1.523v3.123h-3.048v-3.123c0-.84.682-1.523 1.524-1.523zm4.571 1.535v3.111h3.048v-3.11a1.523 1.523 0 00-3.048 0zm-12.19 3.111h3.048v-3.11a1.523 1.523 0 00-3.048 0v3.11z"/></symbol><symbol viewBox="0 0 14 14" id="close" xmlns="http://www.w3.org/2000/svg"><g fill-rule="evenodd"><path d="M13.295 14a.548.548 0 01-.39-.164L.313 1.108a.563.563 0 010-.79.548.548 0 01.782 0l12.59 12.728a.563.563 0 010 .79.548.548 0 01-.39.164z"/><path d="M.705 14a.548.548 0 01-.39-.164.563.563 0 010-.79L12.904.317a.548.548 0 01.781 0 .563.563 0 010 .79l-12.59 12.73a.547.547 0 01-.39.163z"/></g></symbol><symbol viewBox="0 0 22 32" id="communications" xmlns="http://www.w3.org/2000/svg"><path fill-rule="evenodd" clip-rule="evenodd" d="M7.333 0C8.143 0 8.8.651 8.8 1.455v4.363h2.933V1.455A1.46 1.46 0 0113.2 0c.81 0 1.467.651 1.467 1.455v4.363h4.194c.924 0 1.672.743 1.672 1.659V16c0 5.13-3.824 9.373-8.8 10.079v2.285a.73.73 0 00.734.727h8.066c.81 0 1.467.651 1.467 1.454A1.46 1.46 0 0120.533 32h-8.066C10.442 32 8.8 30.372 8.8 28.364v-2.285C3.825 25.373 0 21.129 0 16V7.477c0-.916.749-1.659 1.672-1.659h4.195V1.455A1.46 1.46 0 017.333 0zm2.934 23.273c4.05 0 7.333-3.256 7.333-7.273V8.727H2.933V16c0 4.017 3.284 7.273 7.334 7.273z"/><path fill-rule="evenodd" clip-rule="evenodd" d="M17.6 16c0 4.017-3.283 7.273-7.333 7.273-4.05 0-7.334-3.256-7.334-7.273V8.727H17.6V16zM7.333 18.182A1.46 1.46 0 018.8 16.727h2.933c.81 0 1.467.651 1.467 1.455a1.46 1.46 0 01-1.467 1.454H8.8a1.46 1.46 0 01-1.467-1.454z"/></symbol><symbol viewBox="0 0 32 32" id="equipment" xmlns="http://www.w3.org/2000/svg"><path d="M17.454 1.455a1.455 1.455 0 10-2.909 0v5.09a1.455 1.455 0 102.91 0v-5.09zm5.819 2.181a1.455 1.455 0 10-2.91 0v2.91a1.455 1.455 0 002.91 0v-2.91zM10.182 2.182c.803 0 1.454.651 1.454 1.454v2.91a1.455 1.455 0 01-2.909 0v-2.91c0-.803.652-1.454 1.455-1.454z"/><path fill-rule="evenodd" clip-rule="evenodd" d="M0 10.909c0-.803.651-1.455 1.455-1.455h29.09c.804 0 1.455.652 1.455 1.455 0 4.34-2.547 8.071-6.282 10.408l1.51 5.15.019.062 1.058 3.607a1.454 1.454 0 11-2.792.819l-.76-2.592H7.247l-.76 2.591a1.455 1.455 0 01-2.792-.818l1.057-3.604.02-.066 1.51-5.149C2.547 18.98 0 15.248 0 10.91zm16 13.09c2.532 0 4.938-.48 7.08-1.343l.82 2.798H8.1l.821-2.798C11.062 23.52 13.468 24 16 24zm-2.91-8.726a1.454 1.454 0 100 2.909h5.82a1.455 1.455 0 000-2.91h-5.82z"/></symbol><symbol viewBox="0 0 14 14" id="icon-close" xmlns="http://www.w3.org/2000/svg"><path d="M13 1L1 13M1 1l12 12"/></symbol><symbol viewBox="0 0 14 14" id="instagram" xmlns="http://www.w3.org/2000/svg"><path fill-rule="evenodd" clip-rule="evenodd" d="M7 .6C5.264.6 5.045.608 4.363.64 3.68.67 3.215.778 2.808.936c-.42.164-.778.382-1.133.738a3.142 3.142 0 00-.739 1.134C.777 3.215.669 3.68.639 4.36.609 5.044.6 5.262.6 7.001c0 1.737.008 1.955.039 2.637.031.682.139 1.147.297 1.554.164.42.382.778.738 1.134.356.356.713.575 1.134.738.407.159.872.266 1.553.298.683.03.9.038 2.639.038 1.738 0 1.956-.007 2.638-.038.682-.032 1.147-.14 1.555-.298a3.13 3.13 0 001.132-.738 3.16 3.16 0 00.74-1.134c.156-.407.264-.872.296-1.553.031-.683.04-.9.04-2.639 0-1.738-.009-1.956-.04-2.639-.032-.681-.14-1.146-.297-1.553a3.141 3.141 0 00-.739-1.134 3.128 3.128 0 00-1.133-.738C10.784.778 10.32.67 9.637.64 8.955.608 8.737.6 7 .6zm-.573 1.153H7c1.708 0 1.911.007 2.586.037.624.029.963.133 1.188.22.299.117.512.255.736.48.224.223.362.437.479.735.087.226.191.564.22 1.188.03.675.037.878.037 2.586 0 1.708-.006 1.91-.037 2.585-.029.624-.133.963-.22 1.188a1.98 1.98 0 01-.48.735 1.98 1.98 0 01-.735.479c-.225.088-.564.192-1.188.22-.675.031-.878.038-2.586.038-1.71 0-1.912-.007-2.586-.037-.624-.03-.963-.134-1.189-.221a1.982 1.982 0 01-.736-.479 1.984 1.984 0 01-.479-.736c-.087-.225-.192-.564-.22-1.187-.03-.675-.037-.878-.037-2.587s.006-1.91.037-2.585c.028-.624.133-.963.22-1.189.116-.298.255-.512.48-.736a1.98 1.98 0 01.735-.479c.226-.088.565-.192 1.189-.22.59-.027.819-.035 2.012-.036v.001zm3.99 1.063a.768.768 0 100 1.536.768.768 0 000-1.536zm-3.416.897a3.287 3.287 0 100 6.574 3.287 3.287 0 000-6.574zm0 1.154a2.133 2.133 0 110 4.267 2.133 2.133 0 010-4.267z"/></symbol><symbol viewBox="0 0 18 21" id="play" xmlns="http://www.w3.org/2000/svg"><path d="M18 10.906l-18-10v20"/></symbol><symbol viewBox="0 0 16 16" id="select-arrow" xmlns="http://www.w3.org/2000/svg"><path fill-rule="evenodd" clip-rule="evenodd" d="M7.293.293a1 1 0 011.414 0l7 7a1 1 0 010 1.414l-7 7a1 1 0 01-1.414-1.414L12.586 9H1a1 1 0 010-2h11.586L7.293 1.707a1 1 0 010-1.414z"/></symbol><symbol viewBox="0 0 31 32" id="storage" xmlns="http://www.w3.org/2000/svg"><path fill-rule="evenodd" clip-rule="evenodd" d="M6.975 0c-.447 0-.872.194-1.166.533L.384 6.777a1.567 1.567 0 00-.35 1.35A3.17 3.17 0 000 8.585v20.293C0 30.602 1.388 32 3.1 32h24.8c1.712 0 3.1-1.398 3.1-3.122V8.585a3.18 3.18 0 00-.033-.458 1.567 1.567 0 00-.35-1.35L25.191.533A1.545 1.545 0 0024.024 0H6.975zm18.381 5.463l-2.034-2.341H7.678L5.644 5.463h19.712zM9.261 16.396c0-.862.694-1.56 1.55-1.56h9.3c.856 0 1.55.698 1.55 1.56 0 .862-.694 1.561-1.55 1.561h-9.3c-.856 0-1.55-.699-1.55-1.56z"/></symbol><symbol viewBox="0 0 29 16" id="top" xmlns="http://www.w3.org/2000/svg"><rect x=".222" y="14.364" width="20" height="2" rx="1" transform="rotate(-45 .222 14.364)"/><rect x="14.375" y=".443" width="20" height="2" rx="1" transform="rotate(43.048 14.375 .443)"/></symbol><symbol viewBox="0 0 14 10" id="youtube" xmlns="http://www.w3.org/2000/svg"><path fill-rule="evenodd" clip-rule="evenodd" d="M12 .875c.552.15.985.596 1.133 1.162C13.4 3.062 13.4 5.2 13.4 5.2s0 2.138-.267 3.163A1.625 1.625 0 0112 9.526C11.003 9.8 7 9.8 7 9.8s-4.004 0-5.002-.274a1.625 1.625 0 01-1.13-1.163C.6 7.34.6 5.2.6 5.2s0-2.138.268-3.163A1.622 1.622 0 011.999.875C2.997.6 7 .6 7 .6s4.003 0 5 .275zM5.8 3.4v4l3.2-2-3.2-2z"/></symbol></svg>