<?xml version="1.0" encoding="utf-8"?><svg xmlns="http://www.w3.org/2000/svg" xmlns:xlink="http://www.w3.org/1999/xlink"><symbol viewBox="0 0 32 32" id="Internet" xmlns="http://www.w3.org/2000/svg"><path d="M27.314 4.686c-6.249-6.248-16.38-6.248-22.628 0-6.248 6.249-6.248 16.38 0 22.628a1.455 1.455 0 002.057-2.057c-5.112-5.113-5.112-13.401 0-18.514 5.113-5.112 13.401-5.112 18.514 0 5.112 5.113 5.112 13.401 0 18.514a1.455 1.455 0 102.057 2.057c6.248-6.249 6.248-16.38 0-22.628z"/><path d="M23.2 8.8c-3.977-3.976-10.423-3.976-14.4 0-3.976 3.977-3.976 10.423 0 14.4a1.454 1.454 0 102.057-2.057 7.273 7.273 0 1110.286 0A1.455 1.455 0 0023.2 23.2c3.976-3.977 3.976-10.423 0-14.4z"/><path d="M11.636 16a4.364 4.364 0 115.819 4.115v8.976h1.454a1.455 1.455 0 010 2.909h-5.818a1.454 1.454 0 110-2.91h1.455v-8.975A4.365 4.365 0 0111.636 16z"/></symbol><symbol viewBox="0 0 22 11" id="Vector" xmlns="http://www.w3.org/2000/svg"><path d="M.5 5.5h20m0 0l-4-4m4 4l-4 4"/></symbol><symbol viewBox="0 0 32 32" id="access" xmlns="http://www.w3.org/2000/svg"><path d="M7.73.605c.466.648.315 1.55-.34 2.013L2.3 6.228a1.462 1.462 0 01-2.029-.336 1.437 1.437 0 01.338-2.014L5.7.27a1.462 1.462 0 012.03.336z"/><path fill-rule="evenodd" clip-rule="evenodd" d="M1.212 17.323C1.212 9.217 7.833 2.646 16 2.646s14.788 6.571 14.788 14.677S24.168 32 16 32C7.833 32 1.212 25.429 1.212 17.323zM17.28 9.64a1.45 1.45 0 00-1.455-1.444 1.45 1.45 0 00-1.454 1.444l-.001 7.946c0 .383.153.75.426 1.02l5.652 5.611a1.462 1.462 0 002.057 0 1.436 1.436 0 000-2.042l-5.226-5.187V9.64z"/><path d="M26.3.269a1.462 1.462 0 00-2.03.336 1.437 1.437 0 00.339 2.013l5.09 3.61a1.462 1.462 0 002.03-.336 1.437 1.437 0 00-.338-2.014L26.3.27z"/></symbol><symbol viewBox="0 0 10 13" id="address" xmlns="http://www.w3.org/2000/svg"><path d="M5.001 0c-.659 0-1.311.134-1.92.394-.608.26-1.16.642-1.625 1.122A5.157 5.157 0 00.374 3.192 5.27 5.27 0 000 5.167c0 3.571 3.583 6.845 4.685 7.712a.508.508 0 00.657 0C6.447 11.986 10 8.738 10 5.167a5.27 5.27 0 00-.374-1.974 5.157 5.157 0 00-1.082-1.677A4.997 4.997 0 006.92.395 4.885 4.885 0 005 0zm0 7.304c-.417 0-.824-.127-1.17-.365a2.155 2.155 0 01-.777-.973 2.223 2.223 0 01-.12-1.252c.081-.42.282-.806.577-1.109a2.09 2.09 0 011.079-.593 2.06 2.06 0 011.218.123c.385.164.714.442.945.798a2.21 2.21 0 01-.262 2.736 2.079 2.079 0 01-1.49.635z"/></symbol><symbol viewBox="0 0 100 100" id="address-svgrepo-com" xmlns="http://www.w3.org/2000/svg"><path d="M49 18.92a23.74 23.74 0 00-23.73 23.85c0 16.48 17 31.59 22.23 35.59a2.45 2.45 0 003.12 0c5.24-4.12 22.1-19.11 22.1-35.59A23.74 23.74 0 0049 18.92zm0 33.71a10 10 0 1110-10 10 10 0 01-10 10z"/></symbol><symbol viewBox="0 0 20 12" id="arrow" xmlns="http://www.w3.org/2000/svg"><path d="M12.744 1.59A.833.833 0 1113.922.41l5 5a.833.833 0 010 1.18l-5 5a.833.833 0 11-1.178-1.18l3.577-3.577H1.676A.838.838 0 01.833 6c0-.46.377-.833.843-.833H16.32l-3.577-3.578z"/></symbol><symbol viewBox="0 0 20 14" id="burger" xmlns="http://www.w3.org/2000/svg"><path d="M1 7h18M1 1h18M1 13h18"/></symbol><symbol viewBox="0 0 12 9" id="check-mark" xmlns="http://www.w3.org/2000/svg"><path d="M4.078 8.79L.164 4.897A.571.571 0 010 4.477c0-.172.055-.313.164-.422l.867-.844a.51.51 0 01.399-.188c.172 0 .32.063.445.188L4.5 5.836 10.125.21a.583.583 0 01.422-.188c.172 0 .312.063.422.188l.867.844c.11.11.164.25.164.422a.571.571 0 01-.164.421L4.922 8.79a.535.535 0 01-.422.188.535.535 0 01-.422-.188z"/></symbol><symbol viewBox="0 0 32 29" id="clean" xmlns="http://www.w3.org/2000/svg"><path fill-rule="evenodd" clip-rule="evenodd" d="M11.429 1.523C11.429.682 12.11 0 12.952 0h6.096c.841 0 1.523.682 1.523 1.523v4.569h9.905c.842 0 1.524.681 1.524 1.522v6.092c0 .84-.682 1.523-1.524 1.523h-.762v12.248c0 .841-.682 1.523-1.523 1.523H3.81a1.523 1.523 0 01-1.524-1.523V15.23h-.762A1.523 1.523 0 010 13.706V7.614c0-.84.682-1.522 1.524-1.522h9.905v-4.57zm3.047 1.523v4.568c0 .841-.682 1.523-1.524 1.523H3.048v3.046h25.904V9.137h-9.904a1.523 1.523 0 01-1.524-1.523V3.046h-3.048zM16 21.308c.842 0 1.524.682 1.524 1.523v3.123h-3.048v-3.123c0-.84.682-1.523 1.524-1.523zm4.571 1.535v3.111h3.048v-3.11a1.523 1.523 0 00-3.048 0zm-12.19 3.111h3.048v-3.11a1.523 1.523 0 00-3.048 0v3.11z"/></symbol><symbol viewBox="0 0 14 14" id="close" xmlns="http://www.w3.org/2000/svg"><g fill-rule="evenodd"><path d="M13.295 14a.548.548 0 01-.39-.164L.313 1.108a.563.563 0 010-.79.548.548 0 01.782 0l12.59 12.728a.563.563 0 010 .79.548.548 0 01-.39.164z"/><path d="M.705 14a.548.548 0 01-.39-.164.563.563 0 010-.79L12.904.317a.548.548 0 01.781 0 .563.563 0 010 .79l-12.59 12.73a.547.547 0 01-.39.163z"/></g></symbol><symbol viewBox="0 0 22 32" id="communications" xmlns="http://www.w3.org/2000/svg"><path fill-rule="evenodd" clip-rule="evenodd" d="M7.333 0C8.143 0 8.8.651 8.8 1.455v4.363h2.933V1.455A1.46 1.46 0 0113.2 0c.81 0 1.467.651 1.467 1.455v4.363h4.194c.924 0 1.672.743 1.672 1.659V16c0 5.13-3.824 9.373-8.8 10.079v2.285a.73.73 0 00.734.727h8.066c.81 0 1.467.651 1.467 1.454A1.46 1.46 0 0120.533 32h-8.066C10.442 32 8.8 30.372 8.8 28.364v-2.285C3.825 25.373 0 21.129 0 16V7.477c0-.916.749-1.659 1.672-1.659h4.195V1.455A1.46 1.46 0 017.333 0zm2.934 23.273c4.05 0 7.333-3.256 7.333-7.273V8.727H2.933V16c0 4.017 3.284 7.273 7.334 7.273z"/><path fill-rule="evenodd" clip-rule="evenodd" d="M17.6 16c0 4.017-3.283 7.273-7.333 7.273-4.05 0-7.334-3.256-7.334-7.273V8.727H17.6V16zM7.333 18.182A1.46 1.46 0 018.8 16.727h2.933c.81 0 1.467.651 1.467 1.455a1.46 1.46 0 01-1.467 1.454H8.8a1.46 1.46 0 01-1.467-1.454z"/></symbol><symbol viewBox="0 0 32 32" id="equipment" xmlns="http://www.w3.org/2000/svg"><path d="M17.454 1.455a1.455 1.455 0 10-2.909 0v5.09a1.455 1.455 0 102.91 0v-5.09zm5.819 2.181a1.455 1.455 0 10-2.91 0v2.91a1.455 1.455 0 002.91 0v-2.91zM10.182 2.182c.803 0 1.454.651 1.454 1.454v2.91a1.455 1.455 0 01-2.909 0v-2.91c0-.803.652-1.454 1.455-1.454z"/><path fill-rule="evenodd" clip-rule="evenodd" d="M0 10.909c0-.803.651-1.455 1.455-1.455h29.09c.804 0 1.455.652 1.455 1.455 0 4.34-2.547 8.071-6.282 10.408l1.51 5.15.019.062 1.058 3.607a1.454 1.454 0 11-2.792.819l-.76-2.592H7.247l-.76 2.591a1.455 1.455 0 01-2.792-.818l1.057-3.604.02-.066 1.51-5.149C2.547 18.98 0 15.248 0 10.91zm16 13.09c2.532 0 4.938-.48 7.08-1.343l.82 2.798H8.1l.821-2.798C11.062 23.52 13.468 24 16 24zm-2.91-8.726a1.454 1.454 0 100 2.909h5.82a1.455 1.455 0 000-2.91h-5.82z"/></symbol><symbol viewBox="0 0 7 13" id="facebook" xmlns="http://www.w3.org/2000/svg"><path d="M2.884 13a.76.76 0 01-.76-.757V6.948L.77 6.95a.76.76 0 01-.761-.75L0 5.292a.756.756 0 01.76-.764h1.363V3.166C2.123 1.124 3.17 0 5.071 0c.752 0 1.409.053 1.415.054A.56.56 0 017 .612v1.383c0 .31-.253.561-.564.561h-.885a.67.67 0 00-.671.668l-.017 1.303h1.35c.217 0 .423.093.568.254a.753.753 0 01.187.59l-.106.908a.759.759 0 01-.755.67H4.86v5.294A.76.76 0 014.1 13H2.883z"/></symbol><symbol viewBox="0 0 14 14" id="icon-close" xmlns="http://www.w3.org/2000/svg"><path d="M13 1L1 13M1 1l12 12"/></symbol><symbol viewBox="0 0 14 14" id="instagram" xmlns="http://www.w3.org/2000/svg"><path fill-rule="evenodd" clip-rule="evenodd" d="M7 .6C5.264.6 5.045.608 4.363.64 3.68.67 3.215.778 2.808.936c-.42.164-.778.382-1.133.738a3.142 3.142 0 00-.739 1.134C.777 3.215.669 3.68.639 4.36.609 5.044.6 5.262.6 7.001c0 1.737.008 1.955.039 2.637.031.682.139 1.147.297 1.554.164.42.382.778.738 1.134.356.356.713.575 1.134.738.407.159.872.266 1.553.298.683.03.9.038 2.639.038 1.738 0 1.956-.007 2.638-.038.682-.032 1.147-.14 1.555-.298a3.13 3.13 0 001.132-.738 3.16 3.16 0 00.74-1.134c.156-.407.264-.872.296-1.553.031-.683.04-.9.04-2.639 0-1.738-.009-1.956-.04-2.639-.032-.681-.14-1.146-.297-1.553a3.141 3.141 0 00-.739-1.134 3.128 3.128 0 00-1.133-.738C10.784.778 10.32.67 9.637.64 8.955.608 8.737.6 7 .6zm-.573 1.153H7c1.708 0 1.911.007 2.586.037.624.029.963.133 1.188.22.299.117.512.255.736.48.224.223.362.437.479.735.087.226.191.564.22 1.188.03.675.037.878.037 2.586 0 1.708-.006 1.91-.037 2.585-.029.624-.133.963-.22 1.188a1.98 1.98 0 01-.48.735 1.98 1.98 0 01-.735.479c-.225.088-.564.192-1.188.22-.675.031-.878.038-2.586.038-1.71 0-1.912-.007-2.586-.037-.624-.03-.963-.134-1.189-.221a1.982 1.982 0 01-.736-.479 1.984 1.984 0 01-.479-.736c-.087-.225-.192-.564-.22-1.187-.03-.675-.037-.878-.037-2.587s.006-1.91.037-2.585c.028-.624.133-.963.22-1.189.116-.298.255-.512.48-.736a1.98 1.98 0 01.735-.479c.226-.088.565-.192 1.189-.22.59-.027.819-.035 2.012-.036v.001zm3.99 1.063a.768.768 0 100 1.536.768.768 0 000-1.536zm-3.416.897a3.287 3.287 0 100 6.574 3.287 3.287 0 000-6.574zm0 1.154a2.133 2.133 0 110 4.267 2.133 2.133 0 010-4.267z"/></symbol><symbol viewBox="0 0 13 10" id="mail" xmlns="http://www.w3.org/2000/svg"><path d="M12.579 0H.42A.421.421 0 000 .421v8.556c0 .232.189.421.421.421H12.58a.421.421 0 00.42-.421V.42a.421.421 0 00-.421-.42zm-1.075 7.23a.428.428 0 11-.561.645l-3.007-2.61L6.78 6.268a.427.427 0 01-.56 0L5.064 5.265l-3.007 2.61a.428.428 0 11-.56-.646L4.411 4.7 1.495 2.17a.428.428 0 01.561-.646L6.5 5.379l4.443-3.856a.428.428 0 11.56.646l-2.915 2.53 2.916 2.53z"/></symbol><symbol viewBox="0 0 455.862 455.862" id="mail-svgrepo-com" xmlns="http://www.w3.org/2000/svg"><path d="M441.088 63.154H14.774C6.615 63.154 0 69.77 0 77.93v300.003c0 8.16 6.615 14.775 14.774 14.775h426.313c8.16 0 14.775-6.614 14.775-14.775V77.93c0-8.16-6.614-14.776-14.774-14.776zm-37.694 253.505c6.256 5.43 6.926 14.903 1.497 21.16-5.43 6.254-14.901 6.928-21.161 1.496l-105.452-91.523-40.515 35.164c-2.82 2.448-6.326 3.672-9.832 3.672s-7.012-1.224-9.832-3.672l-40.515-35.164-105.452 91.523c-6.257 5.43-15.731 4.761-21.161-1.496-5.43-6.257-4.76-15.73 1.497-21.16L154.7 227.93 52.468 139.203c-6.256-5.43-6.926-14.903-1.497-21.16 5.431-6.256 14.904-6.928 21.161-1.496l155.799 135.22 155.799-135.22c6.256-5.431 15.731-4.762 21.161 1.496 5.43 6.257 4.76 15.731-1.497 21.16L301.162 227.93l102.232 88.729z"/></symbol><symbol viewBox="0 0 14 14" id="phone" xmlns="http://www.w3.org/2000/svg"><path d="M13.85 10.617c-.521-.985-2.331-2.053-2.41-2.1a1.438 1.438 0 00-.703-.202.874.874 0 00-.781.436c-.265.316-.593.687-.673.744-.617.418-1.1.37-1.634-.163L4.67 6.35c-.531-.53-.58-1.02-.165-1.633.058-.08.429-.409.745-.674a.863.863 0 00.401-.518c.081-.291.022-.634-.169-.968C5.436 2.48 4.368.67 3.383.149a1.284 1.284 0 00-1.504.226l-.66.659C.18 2.075-.198 3.256.1 4.543c.248 1.073.97 2.214 2.149 3.392l3.816 3.817C7.556 13.244 8.977 14 10.29 14c.966 0 1.866-.41 2.675-1.22l.658-.658c.4-.4.491-1.005.227-1.505z"/></symbol><symbol viewBox="0 0 53.942 53.942" id="phone-svgrepo-com" xmlns="http://www.w3.org/2000/svg"><path d="M53.364 40.908c-2.008-3.796-8.981-7.912-9.288-8.092-.896-.51-1.831-.78-2.706-.78-1.301 0-2.366.596-3.011 1.68-1.02 1.22-2.285 2.646-2.592 2.867-2.376 1.612-4.236 1.429-6.294-.629L17.987 24.467c-2.045-2.045-2.233-3.928-.632-6.291.224-.309 1.65-1.575 2.87-2.596.778-.463 1.312-1.151 1.546-1.995.311-1.123.082-2.444-.652-3.731-.173-.296-4.291-7.27-8.085-9.277a4.947 4.947 0 00-2.306-.573 4.908 4.908 0 00-3.49 1.445L4.7 3.986C.686 7.999-.767 12.548.379 17.506c.956 4.132 3.742 8.529 8.282 13.068l14.705 14.705c5.746 5.746 11.224 8.66 16.282 8.66h.001c3.72 0 7.188-1.581 10.305-4.698l2.537-2.537a4.908 4.908 0 00.873-5.796z"/></symbol><symbol viewBox="0 0 18 21" id="play" xmlns="http://www.w3.org/2000/svg"><path d="M18 10.906l-18-10v20"/></symbol><symbol viewBox="0 0 16 16" id="select-arrow" xmlns="http://www.w3.org/2000/svg"><path fill-rule="evenodd" clip-rule="evenodd" d="M7.293.293a1 1 0 011.414 0l7 7a1 1 0 010 1.414l-7 7a1 1 0 01-1.414-1.414L12.586 9H1a1 1 0 010-2h11.586L7.293 1.707a1 1 0 010-1.414z"/></symbol><symbol viewBox="0 0 31 32" id="storage" xmlns="http://www.w3.org/2000/svg"><path fill-rule="evenodd" clip-rule="evenodd" d="M6.975 0c-.447 0-.872.194-1.166.533L.384 6.777a1.567 1.567 0 00-.35 1.35A3.17 3.17 0 000 8.585v20.293C0 30.602 1.388 32 3.1 32h24.8c1.712 0 3.1-1.398 3.1-3.122V8.585a3.18 3.18 0 00-.033-.458 1.567 1.567 0 00-.35-1.35L25.191.533A1.545 1.545 0 0024.024 0H6.975zm18.381 5.463l-2.034-2.341H7.678L5.644 5.463h19.712zM9.261 16.396c0-.862.694-1.56 1.55-1.56h9.3c.856 0 1.55.698 1.55 1.56 0 .862-.694 1.561-1.55 1.561h-9.3c-.856 0-1.55-.699-1.55-1.56z"/></symbol><symbol viewBox="0 0 13 11" id="telegram" xmlns="http://www.w3.org/2000/svg"><path d="M.876 4.729c4-1.79 9.177-3.97 9.892-4.272 1.874-.79 2.45-.639 2.162 1.111-.206 1.258-.8 5.421-1.274 8.013-.28 1.537-.911 1.719-1.903 1.054-.476-.32-2.883-1.938-3.405-2.318-.477-.346-1.135-.762-.31-1.582.293-.293 2.217-2.16 3.716-3.613.196-.19-.05-.504-.277-.351C7.457 4.132 4.656 6.023 4.3 6.269c-.539.371-1.056.542-1.985.27-.701-.204-1.387-.448-1.653-.541-1.027-.359-.784-.823.214-1.27z"/></symbol><symbol viewBox="0 0 29 16" id="top" xmlns="http://www.w3.org/2000/svg"><rect x=".222" y="14.364" width="20" height="2" rx="1" transform="rotate(-45 .222 14.364)"/><rect x="14.375" y=".443" width="20" height="2" rx="1" transform="rotate(43.048 14.375 .443)"/></symbol><symbol viewBox="0 0 13 8" id="vk" xmlns="http://www.w3.org/2000/svg"><path d="M12.93 7.171c-.531-.958-1.899-2.109-2.463-2.61a.369.369 0 01-.03-.526c1.077-1.16 1.939-2.494 2.235-3.3a.549.549 0 00-.522-.732h-1.108c-.366 0-.58.131-.682.34-.895 1.84-1.663 2.636-2.201 3.102a.466.466 0 01-.77-.352V.64a.617.617 0 00-.62-.614L4.744.003c-.255 0-.4.29-.248.492l.335.481a.96.96 0 01.194.578l-.002 2.168c0 .377-.456.561-.727.297-.915-.894-1.71-2.72-1.996-3.592a.617.617 0 00-.586-.424L.62 0a.618.618 0 00-.597.782C1.021 4.294 3.07 7.635 6.72 7.997c.36.036.67-.255.67-.614v-1.14a.61.61 0 01.584-.615h.034c.965 0 2.046 1.408 2.425 2.067a.61.61 0 00.531.305h1.47a.56.56 0 00.497-.829z"/></symbol><symbol viewBox="0 0 14 10" id="youtube" xmlns="http://www.w3.org/2000/svg"><path fill-rule="evenodd" clip-rule="evenodd" d="M12 .875c.552.15.985.596 1.133 1.162C13.4 3.062 13.4 5.2 13.4 5.2s0 2.138-.267 3.163A1.625 1.625 0 0112 9.526C11.003 9.8 7 9.8 7 9.8s-4.004 0-5.002-.274a1.625 1.625 0 01-1.13-1.163C.6 7.34.6 5.2.6 5.2s0-2.138.268-3.163A1.622 1.622 0 011.999.875C2.997.6 7 .6 7 .6s4.003 0 5 .275zM5.8 3.4v4l3.2-2-3.2-2z"/></symbol></svg>